<svg xmlns="http://www.w3.org/2000/svg" width="1100" height="340" viewBox="0 0 1100 340" fill="none" role="img" aria-label="Wireframe UI preview">
  <rect width="1100" height="340" rx="16" fill="#f1f5f9"/>
  <text x="550" y="36" text-anchor="middle" fill="#475569" font-family="ui-sans-serif, system-ui, sans-serif" font-size="13" font-weight="600">Wireframe preview  drop PNG/WebP shots into docs/readme/screenshots/</text>
  <g transform="translate(40,56)">
    <rect width="320" height="240" rx="12" fill="#fff" stroke="#e2e8f0" stroke-width="2"/>
    <rect x="12" y="12" width="296" height="22" rx="6" fill="#e2e8f0"/>
    <rect x="12" y="44" width="72" height="176" rx="8" fill="#f8fafc"/>
    <rect x="92" y="44" width="216" height="120" rx="8" fill="#f8fafc"/>
    <rect x="92" y="172" width="216" height="48" rx="8" fill="#eef2ff"/>
    <text x="160" y="288" text-anchor="middle" fill="#64748b" font-family="ui-sans-serif, system-ui, sans-serif" font-size="12">Dashboard</text>
  </g>
  <g transform="translate(390,56)">
    <rect width="320" height="240" rx="12" fill="#fff" stroke="#e2e8f0" stroke-width="2"/>
    <rect x="12" y="12" width="296" height="22" rx="6" fill="#e2e8f0"/>
    <rect x="12" y="44" width="296" height="28" rx="6" fill="#f1f5f9"/>
    <rect x="12" y="84" width="296" height="100" rx="8" fill="#f8fafc"/>
    <rect x="12" y="192" width="140" height="28" rx="6" fill="#dcfce7"/>
    <text x="160" y="288" text-anchor="middle" fill="#64748b" font-family="ui-sans-serif, system-ui, sans-serif" font-size="12">Course reader</text>
  </g>
  <g transform="translate(740,56)">
    <rect width="320" height="240" rx="12" fill="#fff" stroke="#e2e8f0" stroke-width="2"/>
    <rect x="12" y="12" width="296" height="22" rx="6" fill="#e2e8f0"/>
    <rect x="12" y="48" width="296" height="18" rx="4" fill="#e2e8f0"/>
    <rect x="12" y="78" width="296" height="18" rx="4" fill="#e2e8f0"/>
    <rect x="12" y="108" width="296" height="18" rx="4" fill="#e2e8f0"/>
    <rect x="12" y="196" width="120" height="32" rx="8" fill="#e0e7ff"/>
    <text x="160" y="288" text-anchor="middle" fill="#64748b" font-family="ui-sans-serif, system-ui, sans-serif" font-size="12">Quiz</text>
  </g>
</svg>
